<svg width="24" height="36" viewBox="0 0 24 36" fill="none" xmlns="http://www.w3.org/2000/svg">
<path d="M23.5294 12.493C23.5294 17.1631 20.7623 21.1894 16.7793 23.0163C18.4612 21.6309 19.5322 19.5292 19.5322 17.1772C19.5322 13.0454 16.2259 9.68544 12.112 9.60168C12.0574 9.59792 12.0075 9.59792 11.9529 9.59792C11.8983 9.59792 11.8485 9.59792 11.7939 9.60168C10.2673 9.6845 9.05882 10.9476 9.05882 12.492V26.9626C9.05882 31.756 5.16988 35.645 0.376465 35.645V12.493C0.376465 6.1005 5.56047 0.916504 11.9529 0.916504C18.3454 0.916504 23.5294 6.1005 23.5294 12.493Z" fill="white"/>
<path d="M13.9992 14.5396C15.1294 13.4094 15.1294 11.5769 13.9992 10.4467C12.8689 9.31652 11.0365 9.31652 9.90629 10.4467C8.77608 11.5769 8.77608 13.4094 9.90629 14.5396C11.0365 15.6698 12.8689 15.6698 13.9992 14.5396Z" fill="white"/>
</svg>
